# xmcd
#
# Track frame offsets: 
#        150
#        18887
#        39652
#        55443
#        77538
#        97958
#        116362
#        135307
#        154838
#        171777
#        192084
#        211617
#        228375
#        246348
#        273663
#        293560
#        315522
#
# Disc length: 4499 seconds
#
# Revision: 3
# Processed by: cddbd v1.5.2PL0 Copyright (c) Steve Scherf et al.
# Submitted via: ExactAudioCopy v1.3
#
DISCID=d9119111
DTITLE=Michael Martin Murphey - Cowboy Songs III
DYEAR=1993
DGENRE=Country
TTITLE0=Big Iron (Duet With Marty Robbins)
TTITLE1=Rhymes Of The Renegades
TTITLE2=Riders In The Sky
TTITLE3=El Paso
TTITLE4=Sonora's Death Row
TTITLE5=Ballad Of Billy The Kid
TTITLE6=Billy Gray (Duet With Debbie Nims)
TTITLE7=Roses And Thorns (Duet With Ryan Murphey)
TTITLE8=Strawberry Roan (Duet With Chris LeDoux)
TTITLE9=The Wild West Is Gonna Get Wilder
TTITLE10=The Ballad Of Jesse James
TTITLE11=Frank James' Farewell (Duet With Hal Ketchum)
TTITLE12=Cole Younger
TTITLE13=Belle Star (Duet With Bill Miller)
TTITLE14=Queen Of Heartaches
TTITLE15=Sam Bass
TTITLE16=Birmingham Jail
EXTD=
EXTT0=Dduet with Marty Robbins
EXTT1=
EXTT2=
EXTT3=
EXTT4=
EXTT5=
EXTT6=Duet with Debbie Nims
EXTT7=Duet With Ryan Murphey
EXTT8=Duet with Chris LeDoux
EXTT9=
EXTT10=
EXTT11=Duet with Hal Ketchum
EXTT12=
EXTT13=Duet with Bill Miller
EXTT14=
EXTT15=
EXTT16=
PLAYORDER=
